<svg width="638" height="352" viewBox="0 0 638 352" fill="none" xmlns="http://www.w3.org/2000/svg" role="img" aria-labelledby="titleId descId">
  <title id="titleId">hyperpuncher's GitHub Stats</title>
  <desc id="descId">Total Stars Earned 207, Total Commits 10.8k, Total PRs 35, Merged PRs 20, Total Issues 8, Repos contributed 14, Busiest day 84,  on 2026-07-03. Most used languages: TypeScript 48.1%, Rust 15.3%, QML 5.7%, Shell 5.7%, Go 5.6%, Svelte 5.4%, CSS 4.7%, JavaScript 3.4%, Nix 1.4%, HTML 1.2%, Lua 1.1%, Python 1.1%, templ 0.7%, Tree-sitter Query 0.3%, Just 0.3%, Ruby 0.1%, </desc>
  <style>
    text { font-family: system-ui, sans-serif; }
    .num { font-variant-numeric: tabular-nums; font-feature-settings: "tnum" 1; }
    .bg { fill: #eff1f5; stroke: #137980; stroke-opacity: 0.3; }
    .header { font-size: 18px; font-weight: 600; fill: #137980; }
    .sub { font-size: 12px; fill: #4c4f69; opacity: 0.55; }
    .stat { font-size: 14px; font-weight: 600; fill: #4c4f69; }
    .lang { font-size: 13px; fill: #4c4f69; }
    .icon { fill: #8839ef; }
    @media (prefers-color-scheme: dark) {
    .bg { fill: #15141b; stroke: #a277ff; stroke-opacity: 0.3; }
    .header { font-size: 18px; font-weight: 600; fill: #a277ff; }
    .sub { font-size: 12px; fill: #61ffca; opacity: 0.55; }
    .stat { font-size: 14px; font-weight: 600; fill: #61ffca; }
    .lang { font-size: 13px; fill: #61ffca; }
    .icon { fill: #ffca85; }
    }
  </style>
  <defs>
    <clipPath id="bar-clip"><rect x="0" y="0" width="340" height="8" rx="4"/></clipPath>
    <symbol id="i-star" viewBox="0 0 16 16"><path fill-rule="evenodd" d="M8 .25a.75.75 0 01.673.418l1.882 3.815 4.21.612a.75.75 0 01.416 1.279l-3.046 2.97.719 4.192a.75.75 0 01-1.088.791L8 12.347l-3.766 1.98a.75.75 0 01-1.088-.79l.72-4.194L.818 6.374a.75.75 0 01.416-1.28l4.21-.611L7.327.668A.75.75 0 018 .25zm0 2.445L6.615 5.5a.75.75 0 01-.564.41l-3.097.45 2.24 2.184a.75.75 0 01.216.664l-.528 3.084 2.769-1.456a.75.75 0 01.698 0l2.77 1.456-.53-3.084a.75.75 0 01.216-.664l2.24-2.183-3.096-.45a.75.75 0 01-.564-.41L8 2.694v.001z"/></symbol>
    <symbol id="i-commits" viewBox="0 0 16 16"><path fill-rule="evenodd" d="M1.643 3.143L.427 1.927A.25.25 0 000 2.104V5.75c0 .138.112.25.25.25h3.646a.25.25 0 00.177-.427L2.715 4.215a6.5 6.5 0 11-1.18 4.458.75.75 0 10-1.493.154 8.001 8.001 0 101.6-5.684zM7.75 4a.75.75 0 01.75.75v2.992l2.028.812a.75.75 0 01-.557 1.392l-2.5-1A.75.75 0 017 8.25v-3.5A.75.75 0 017.75 4z"/></symbol>
    <symbol id="i-prs" viewBox="0 0 16 16"><path fill-rule="evenodd" d="M7.177 3.073L9.573.677A.25.25 0 0110 .854v4.792a.25.25 0 01-.427.177L7.177 3.427a.25.25 0 010-.354zM3.75 2.5a.75.75 0 100 1.5.75.75 0 000-1.5zm-2.25.75a2.25 2.25 0 113 2.122v5.256a2.251 2.251 0 11-1.5 0V5.372A2.25 2.25 0 011.5 3.25zM11 2.5h-1V4h1a1 1 0 011 1v5.628a2.251 2.251 0 101.5 0V5A2.5 2.5 0 0011 2.5zm1 10.25a.75.75 0 111.5 0 .75.75 0 01-1.5 0zM3.75 12a.75.75 0 100 1.5.75.75 0 000-1.5z"/></symbol>
    <symbol id="i-prs_merged" viewBox="0 0 16 16"><path fill-rule="evenodd" d="M5.45 5.154A4.25 4.25 0 0 0 9.25 7.5h1.378a2.251 2.251 0 1 1 0 1.5H9.25A5.734 5.734 0 0 1 5 7.123v3.505a2.25 2.25 0 1 1-1.5 0V5.372a2.25 2.25 0 1 1 1.95-.218ZM4.25 13.5a.75.75 0 1 0 0-1.5.75.75 0 0 0 0 1.5Zm8.5-4.5a.75.75 0 1 0 0-1.5.75.75 0 0 0 0 1.5ZM5 3.25a.75.75 0 1 0 0 .005V3.25Z"/></symbol>
    <symbol id="i-issues" viewBox="0 0 16 16"><path fill-rule="evenodd" d="M8 1.5a6.5 6.5 0 100 13 6.5 6.5 0 000-13zM0 8a8 8 0 1116 0A8 8 0 010 8zm9 3a1 1 0 11-2 0 1 1 0 012 0zm-.25-6.25a.75.75 0 00-1.5 0v3.5a.75.75 0 001.5 0v-3.5z"/></symbol>
    <symbol id="i-contribs" viewBox="0 0 16 16"><path fill-rule="evenodd" d="M2 2.5A2.5 2.5 0 014.5 0h8.75a.75.75 0 01.75.75v12.5a.75.75 0 01-.75.75h-2.5a.75.75 0 110-1.5h1.75v-2h-8a1 1 0 00-.714 1.7.75.75 0 01-1.072 1.05A2.495 2.495 0 012 11.5v-9zm10.5-1V9h-8c-.356 0-.694.074-1 .208V2.5a1 1 0 011-1h8zM5 12.25v3.25a.25.25 0 00.4.2l1.45-1.087a.25.25 0 01.3 0L8.6 15.7a.25.25 0 00.4-.2v-3.25a.25.25 0 00-.25-.25h-3.5a.25.25 0 00-.25.25z"/></symbol>
    <symbol id="i-flame" viewBox="0 0 16 16"><path fill-rule="evenodd" d="M9.533.753V.752c.217 2.385 1.463 3.626 2.653 4.81C13.37 6.74 14.498 7.863 14.498 10c0 3.5-3 6-6.5 6S1.5 13.512 1.5 10c0-1.298.536-2.56 1.425-3.286.376-.308.862 0 1.035.454C4.46 8.487 5.581 8.419 6 8c.282-.282.341-.811-.003-1.5C4.34 3.187 7.035.75 8.77.146c.39-.137.726.194.763.607ZM7.998 14.5c2.832 0 5-1.98 5-4.5 0-1.463-.68-2.19-1.879-3.383l-.036-.037c-1.013-1.008-2.3-2.29-2.834-4.434-.322.256-.63.579-.864.953-.432.696-.621 1.58-.046 2.73.473.947.67 2.284-.278 3.232-.61.61-1.545.84-2.403.633a2.79 2.79 0 0 1-1.436-.874A3.198 3.198 0 0 0 3 10c0 2.53 2.164 4.5 4.998 4.5Z"/></symbol>
  </defs>
  <rect class="bg" x="0.5" y="0.5" width="637" height="351" rx="8"/>
  <text class="header" x="25" y="45">hyperpuncher's GitHub Stats</text>
  <text class="sub" x="613" y="45" text-anchor="end">since 2018</text>
  <g transform="translate(273, 86)"><g clip-path="url(#bar-clip)"><rect x="0.00" y="0" width="164.04" height="8" fill="#3178c6"/><rect x="163.44" y="0" width="52.47" height="8" fill="#dea584"/><rect x="215.31" y="0" width="20.00" height="8" fill="#44a51c"/><rect x="234.72" y="0" width="19.92" height="8" fill="#89e051"/><rect x="254.04" y="0" width="19.51" height="8" fill="#00ADD8"/><rect x="272.95" y="0" width="19.07" height="8" fill="#ff3e00"/><rect x="291.41" y="0" width="16.68" height="8" fill="#663399"/><rect x="307.49" y="0" width="12.16" height="8" fill="#f1e05a"/><rect x="319.05" y="0" width="5.47" height="8" fill="#7e7eff"/><rect x="323.92" y="0" width="4.56" height="8" fill="#e34c26"/><rect x="327.88" y="0" width="4.47" height="8" fill="#000080"/><rect x="331.75" y="0" width="4.22" height="8" fill="#3572A5"/><rect x="335.36" y="0" width="3.11" height="8" fill="#66D0DD"/><rect x="337.88" y="0" width="1.50" height="8" fill="#8ea64c"/><rect x="338.78" y="0" width="1.45" height="8" fill="#384d54"/><rect x="339.63" y="0" width="0.97" height="8" fill="#701516"/></g></g>
  <g transform="translate(25, 82)"><use href="#i-star" class="icon" width="16" height="16"/><text class="stat" x="25" y="12.5">Total Stars Earned</text><text class="stat num" x="213" y="12.5" text-anchor="end">207</text></g><g transform="translate(25, 120)"><use href="#i-commits" class="icon" width="16" height="16"/><text class="stat" x="25" y="12.5">Total Commits</text><text class="stat num" x="213" y="12.5" text-anchor="end">10.8k</text></g><g transform="translate(25, 158)"><use href="#i-prs" class="icon" width="16" height="16"/><text class="stat" x="25" y="12.5">Total PRs</text><text class="stat num" x="213" y="12.5" text-anchor="end">35</text></g><g transform="translate(25, 196)"><use href="#i-prs_merged" class="icon" width="16" height="16"/><text class="stat" x="25" y="12.5">Merged PRs</text><text class="stat num" x="213" y="12.5" text-anchor="end">20</text></g><g transform="translate(25, 234)"><use href="#i-issues" class="icon" width="16" height="16"/><text class="stat" x="25" y="12.5">Total Issues</text><text class="stat num" x="213" y="12.5" text-anchor="end">8</text></g><g transform="translate(25, 272)"><use href="#i-contribs" class="icon" width="16" height="16"/><text class="stat" x="25" y="12.5">Repos contributed</text><text class="stat num" x="213" y="12.5" text-anchor="end">14</text></g><g transform="translate(25, 310)"><use href="#i-flame" class="icon" width="16" height="16"/><text class="stat" x="25" y="12.5">Busiest day</text><text class="stat num" x="213" y="12.5" text-anchor="end">84</text></g>
  <g transform="translate(273, 112)"><circle cx="5" cy="6" r="5" fill="#3178c6"/><text class="lang" x="15" y="10">TypeScript</text><text class="lang num" x="160" y="10" text-anchor="end">48.1%</text></g><g transform="translate(273, 141)"><circle cx="5" cy="6" r="5" fill="#dea584"/><text class="lang" x="15" y="10">Rust</text><text class="lang num" x="160" y="10" text-anchor="end">15.3%</text></g><g transform="translate(273, 170)"><circle cx="5" cy="6" r="5" fill="#44a51c"/><text class="lang" x="15" y="10">QML</text><text class="lang num" x="160" y="10" text-anchor="end">5.7%</text></g><g transform="translate(273, 199)"><circle cx="5" cy="6" r="5" fill="#89e051"/><text class="lang" x="15" y="10">Shell</text><text class="lang num" x="160" y="10" text-anchor="end">5.7%</text></g><g transform="translate(273, 228)"><circle cx="5" cy="6" r="5" fill="#00ADD8"/><text class="lang" x="15" y="10">Go</text><text class="lang num" x="160" y="10" text-anchor="end">5.6%</text></g><g transform="translate(273, 257)"><circle cx="5" cy="6" r="5" fill="#ff3e00"/><text class="lang" x="15" y="10">Svelte</text><text class="lang num" x="160" y="10" text-anchor="end">5.4%</text></g><g transform="translate(273, 286)"><circle cx="5" cy="6" r="5" fill="#663399"/><text class="lang" x="15" y="10">CSS</text><text class="lang num" x="160" y="10" text-anchor="end">4.7%</text></g><g transform="translate(273, 315)"><circle cx="5" cy="6" r="5" fill="#f1e05a"/><text class="lang" x="15" y="10">JavaScript</text><text class="lang num" x="160" y="10" text-anchor="end">3.4%</text></g><g transform="translate(453, 112)"><circle cx="5" cy="6" r="5" fill="#7e7eff"/><text class="lang" x="15" y="10">Nix</text><text class="lang num" x="160" y="10" text-anchor="end">1.4%</text></g><g transform="translate(453, 141)"><circle cx="5" cy="6" r="5" fill="#e34c26"/><text class="lang" x="15" y="10">HTML</text><text class="lang num" x="160" y="10" text-anchor="end">1.2%</text></g><g transform="translate(453, 170)"><circle cx="5" cy="6" r="5" fill="#000080"/><text class="lang" x="15" y="10">Lua</text><text class="lang num" x="160" y="10" text-anchor="end">1.1%</text></g><g transform="translate(453, 199)"><circle cx="5" cy="6" r="5" fill="#3572A5"/><text class="lang" x="15" y="10">Python</text><text class="lang num" x="160" y="10" text-anchor="end">1.1%</text></g><g transform="translate(453, 228)"><circle cx="5" cy="6" r="5" fill="#66D0DD"/><text class="lang" x="15" y="10">templ</text><text class="lang num" x="160" y="10" text-anchor="end">0.7%</text></g><g transform="translate(453, 257)"><circle cx="5" cy="6" r="5" fill="#8ea64c"/><text class="lang" x="15" y="10">Tree-sitter Query</text><text class="lang num" x="160" y="10" text-anchor="end">0.3%</text></g><g transform="translate(453, 286)"><circle cx="5" cy="6" r="5" fill="#384d54"/><text class="lang" x="15" y="10">Just</text><text class="lang num" x="160" y="10" text-anchor="end">0.3%</text></g><g transform="translate(453, 315)"><circle cx="5" cy="6" r="5" fill="#701516"/><text class="lang" x="15" y="10">Ruby</text><text class="lang num" x="160" y="10" text-anchor="end">0.1%</text></g>
</svg>
